<mxfile host="app.diagrams.net" agent="Mozilla/5.0 (Windows NT 10.0; Win64; x64) AppleWebKit/537.36 (KHTML, like Gecko) Chrome/133.0.0.0 Safari/537.36" version="26.0.15">
  <diagram name="Halaman-1" id="N4Tg4IYuiXTZ6E1VW4LH">
    <mxGraphModel dx="4290" dy="2315" grid="0" gridSize="10" guides="1" tooltips="1" connect="1" arrows="1" fold="1" page="0" pageScale="1" pageWidth="827" pageHeight="1169" math="0" shadow="0">
      <root>
        <mxCell id="0" />
        <mxCell id="1" parent="0" />
        <mxCell id="1ZU4-F8dUSN6Qa-FBgpp-14" style="edgeStyle=none;curved=1;rounded=0;orthogonalLoop=1;jettySize=auto;html=1;exitX=0.25;exitY=0;exitDx=0;exitDy=0;entryX=1;entryY=1;entryDx=0;entryDy=0;fontSize=12;startSize=8;endSize=8;endArrow=none;startFill=0;" edge="1" parent="1" source="1ZU4-F8dUSN6Qa-FBgpp-2" target="1ZU4-F8dUSN6Qa-FBgpp-10">
          <mxGeometry relative="1" as="geometry" />
        </mxCell>
        <mxCell id="1ZU4-F8dUSN6Qa-FBgpp-15" style="edgeStyle=none;curved=1;rounded=0;orthogonalLoop=1;jettySize=auto;html=1;exitX=0.5;exitY=0;exitDx=0;exitDy=0;entryX=0.5;entryY=1;entryDx=0;entryDy=0;fontSize=12;startSize=8;endSize=8;endArrow=none;startFill=0;" edge="1" parent="1" source="1ZU4-F8dUSN6Qa-FBgpp-2" target="1ZU4-F8dUSN6Qa-FBgpp-11">
          <mxGeometry relative="1" as="geometry" />
        </mxCell>
        <mxCell id="1ZU4-F8dUSN6Qa-FBgpp-16" style="edgeStyle=none;curved=1;rounded=0;orthogonalLoop=1;jettySize=auto;html=1;exitX=0.75;exitY=0;exitDx=0;exitDy=0;entryX=0.5;entryY=1;entryDx=0;entryDy=0;fontSize=12;startSize=8;endSize=8;endArrow=none;startFill=0;" edge="1" parent="1" source="1ZU4-F8dUSN6Qa-FBgpp-2" target="1ZU4-F8dUSN6Qa-FBgpp-12">
          <mxGeometry relative="1" as="geometry" />
        </mxCell>
        <mxCell id="1ZU4-F8dUSN6Qa-FBgpp-18" style="edgeStyle=none;curved=1;rounded=0;orthogonalLoop=1;jettySize=auto;html=1;exitX=0.5;exitY=0;exitDx=0;exitDy=0;entryX=0.5;entryY=1;entryDx=0;entryDy=0;fontSize=12;startSize=8;endSize=8;endArrow=none;startFill=0;" edge="1" parent="1" source="1ZU4-F8dUSN6Qa-FBgpp-2" target="1ZU4-F8dUSN6Qa-FBgpp-13">
          <mxGeometry relative="1" as="geometry" />
        </mxCell>
        <mxCell id="1ZU4-F8dUSN6Qa-FBgpp-31" style="edgeStyle=none;curved=1;rounded=0;orthogonalLoop=1;jettySize=auto;html=1;exitX=0.5;exitY=1;exitDx=0;exitDy=0;entryX=0.5;entryY=0;entryDx=0;entryDy=0;fontSize=12;shape=link;" edge="1" parent="1" source="1ZU4-F8dUSN6Qa-FBgpp-2" target="1ZU4-F8dUSN6Qa-FBgpp-27">
          <mxGeometry relative="1" as="geometry" />
        </mxCell>
        <mxCell id="1ZU4-F8dUSN6Qa-FBgpp-2" value="User" style="rounded=0;whiteSpace=wrap;html=1;" vertex="1" parent="1">
          <mxGeometry x="-237" y="-136" width="120" height="49" as="geometry" />
        </mxCell>
        <mxCell id="1ZU4-F8dUSN6Qa-FBgpp-35" style="edgeStyle=none;curved=1;rounded=0;orthogonalLoop=1;jettySize=auto;html=1;exitX=1;exitY=0.5;exitDx=0;exitDy=0;entryX=0;entryY=0.5;entryDx=0;entryDy=0;fontSize=12;shape=link;" edge="1" parent="1" source="1ZU4-F8dUSN6Qa-FBgpp-3" target="1ZU4-F8dUSN6Qa-FBgpp-34">
          <mxGeometry relative="1" as="geometry" />
        </mxCell>
        <mxCell id="1ZU4-F8dUSN6Qa-FBgpp-44" style="edgeStyle=none;curved=1;rounded=0;orthogonalLoop=1;jettySize=auto;html=1;exitX=0.25;exitY=1;exitDx=0;exitDy=0;entryX=0.5;entryY=0;entryDx=0;entryDy=0;fontSize=12;startSize=8;endSize=8;endArrow=none;startFill=0;" edge="1" parent="1" source="1ZU4-F8dUSN6Qa-FBgpp-3" target="1ZU4-F8dUSN6Qa-FBgpp-41">
          <mxGeometry relative="1" as="geometry" />
        </mxCell>
        <mxCell id="1ZU4-F8dUSN6Qa-FBgpp-45" style="edgeStyle=none;curved=1;rounded=0;orthogonalLoop=1;jettySize=auto;html=1;exitX=0.5;exitY=1;exitDx=0;exitDy=0;entryX=0.5;entryY=0;entryDx=0;entryDy=0;fontSize=12;startSize=8;endSize=8;endArrow=none;startFill=0;" edge="1" parent="1" source="1ZU4-F8dUSN6Qa-FBgpp-3" target="1ZU4-F8dUSN6Qa-FBgpp-42">
          <mxGeometry relative="1" as="geometry" />
        </mxCell>
        <mxCell id="1ZU4-F8dUSN6Qa-FBgpp-46" style="edgeStyle=none;curved=1;rounded=0;orthogonalLoop=1;jettySize=auto;html=1;exitX=0.75;exitY=1;exitDx=0;exitDy=0;entryX=0.5;entryY=0;entryDx=0;entryDy=0;fontSize=12;startSize=8;endSize=8;endArrow=none;startFill=0;" edge="1" parent="1" source="1ZU4-F8dUSN6Qa-FBgpp-3" target="1ZU4-F8dUSN6Qa-FBgpp-43">
          <mxGeometry relative="1" as="geometry" />
        </mxCell>
        <mxCell id="1ZU4-F8dUSN6Qa-FBgpp-50" style="edgeStyle=none;curved=1;rounded=0;orthogonalLoop=1;jettySize=auto;html=1;exitX=0;exitY=0.25;exitDx=0;exitDy=0;entryX=1;entryY=0.5;entryDx=0;entryDy=0;fontSize=12;startSize=8;endSize=8;endArrow=none;startFill=0;" edge="1" parent="1" source="1ZU4-F8dUSN6Qa-FBgpp-3" target="1ZU4-F8dUSN6Qa-FBgpp-49">
          <mxGeometry relative="1" as="geometry" />
        </mxCell>
        <mxCell id="1ZU4-F8dUSN6Qa-FBgpp-51" style="edgeStyle=none;curved=1;rounded=0;orthogonalLoop=1;jettySize=auto;html=1;exitX=0;exitY=0.5;exitDx=0;exitDy=0;entryX=1;entryY=0.5;entryDx=0;entryDy=0;fontSize=12;startSize=8;endSize=8;endArrow=none;startFill=0;" edge="1" parent="1" source="1ZU4-F8dUSN6Qa-FBgpp-3" target="1ZU4-F8dUSN6Qa-FBgpp-48">
          <mxGeometry relative="1" as="geometry" />
        </mxCell>
        <mxCell id="1ZU4-F8dUSN6Qa-FBgpp-91" style="edgeStyle=none;curved=1;rounded=0;orthogonalLoop=1;jettySize=auto;html=1;exitX=0.5;exitY=1;exitDx=0;exitDy=0;entryX=0.5;entryY=0;entryDx=0;entryDy=0;fontSize=12;shape=link;" edge="1" parent="1" source="1ZU4-F8dUSN6Qa-FBgpp-3" target="1ZU4-F8dUSN6Qa-FBgpp-52">
          <mxGeometry relative="1" as="geometry" />
        </mxCell>
        <mxCell id="1ZU4-F8dUSN6Qa-FBgpp-3" value="Outlet" style="rounded=0;whiteSpace=wrap;html=1;" vertex="1" parent="1">
          <mxGeometry x="-879" y="34" width="120" height="60" as="geometry" />
        </mxCell>
        <mxCell id="1ZU4-F8dUSN6Qa-FBgpp-4" value="Transaksi" style="rounded=0;whiteSpace=wrap;html=1;strokeColor=default;" vertex="1" parent="1">
          <mxGeometry x="-124" y="346" width="120" height="60" as="geometry" />
        </mxCell>
        <mxCell id="1ZU4-F8dUSN6Qa-FBgpp-21" style="edgeStyle=none;curved=1;rounded=0;orthogonalLoop=1;jettySize=auto;html=1;exitX=0.25;exitY=1;exitDx=0;exitDy=0;entryX=0.5;entryY=0;entryDx=0;entryDy=0;fontSize=12;startSize=8;endSize=8;endArrow=none;startFill=0;" edge="1" parent="1" source="1ZU4-F8dUSN6Qa-FBgpp-5" target="1ZU4-F8dUSN6Qa-FBgpp-19">
          <mxGeometry relative="1" as="geometry" />
        </mxCell>
        <mxCell id="1ZU4-F8dUSN6Qa-FBgpp-22" style="edgeStyle=none;curved=1;rounded=0;orthogonalLoop=1;jettySize=auto;html=1;exitX=0.75;exitY=0;exitDx=0;exitDy=0;entryX=0.5;entryY=1;entryDx=0;entryDy=0;fontSize=12;startSize=8;endSize=8;endArrow=none;startFill=0;" edge="1" parent="1" source="1ZU4-F8dUSN6Qa-FBgpp-5" target="1ZU4-F8dUSN6Qa-FBgpp-20">
          <mxGeometry relative="1" as="geometry" />
        </mxCell>
        <mxCell id="1ZU4-F8dUSN6Qa-FBgpp-5" value="Mitra" style="rounded=0;whiteSpace=wrap;html=1;" vertex="1" parent="1">
          <mxGeometry x="-374" y="38" width="120" height="48" as="geometry" />
        </mxCell>
        <mxCell id="1ZU4-F8dUSN6Qa-FBgpp-67" style="edgeStyle=none;curved=1;rounded=0;orthogonalLoop=1;jettySize=auto;html=1;exitX=0;exitY=0.5;exitDx=0;exitDy=0;entryX=1;entryY=0.5;entryDx=0;entryDy=0;fontSize=12;startSize=8;endSize=8;endArrow=none;startFill=0;" edge="1" parent="1" source="1ZU4-F8dUSN6Qa-FBgpp-6" target="1ZU4-F8dUSN6Qa-FBgpp-65">
          <mxGeometry relative="1" as="geometry" />
        </mxCell>
        <mxCell id="1ZU4-F8dUSN6Qa-FBgpp-72" style="edgeStyle=none;curved=1;rounded=0;orthogonalLoop=1;jettySize=auto;html=1;exitX=0.25;exitY=1;exitDx=0;exitDy=0;entryX=0.5;entryY=0;entryDx=0;entryDy=0;fontSize=12;startSize=8;endSize=8;endArrow=none;startFill=0;" edge="1" parent="1" source="1ZU4-F8dUSN6Qa-FBgpp-6" target="1ZU4-F8dUSN6Qa-FBgpp-70">
          <mxGeometry relative="1" as="geometry" />
        </mxCell>
        <mxCell id="1ZU4-F8dUSN6Qa-FBgpp-73" style="edgeStyle=none;curved=1;rounded=0;orthogonalLoop=1;jettySize=auto;html=1;exitX=0.75;exitY=1;exitDx=0;exitDy=0;entryX=0.5;entryY=0;entryDx=0;entryDy=0;fontSize=12;startSize=8;endSize=8;endArrow=none;startFill=0;" edge="1" parent="1" source="1ZU4-F8dUSN6Qa-FBgpp-6" target="1ZU4-F8dUSN6Qa-FBgpp-71">
          <mxGeometry relative="1" as="geometry" />
        </mxCell>
        <mxCell id="1ZU4-F8dUSN6Qa-FBgpp-6" value="Bank Account" style="rounded=0;whiteSpace=wrap;html=1;" vertex="1" parent="1">
          <mxGeometry x="244" y="44" width="120" height="60" as="geometry" />
        </mxCell>
        <mxCell id="1ZU4-F8dUSN6Qa-FBgpp-100" style="edgeStyle=none;curved=1;rounded=0;orthogonalLoop=1;jettySize=auto;html=1;exitX=0.5;exitY=1;exitDx=0;exitDy=0;entryX=0;entryY=0;entryDx=0;entryDy=0;fontSize=12;startSize=8;endSize=8;endArrow=none;startFill=0;" edge="1" parent="1" source="1ZU4-F8dUSN6Qa-FBgpp-7" target="1ZU4-F8dUSN6Qa-FBgpp-97">
          <mxGeometry relative="1" as="geometry" />
        </mxCell>
        <mxCell id="1ZU4-F8dUSN6Qa-FBgpp-101" style="edgeStyle=none;curved=1;rounded=0;orthogonalLoop=1;jettySize=auto;html=1;exitX=1;exitY=0.75;exitDx=0;exitDy=0;entryX=0;entryY=0.5;entryDx=0;entryDy=0;fontSize=12;startSize=8;endSize=8;endArrow=none;startFill=0;" edge="1" parent="1" source="1ZU4-F8dUSN6Qa-FBgpp-7" target="1ZU4-F8dUSN6Qa-FBgpp-99">
          <mxGeometry relative="1" as="geometry" />
        </mxCell>
        <mxCell id="1ZU4-F8dUSN6Qa-FBgpp-102" style="edgeStyle=none;curved=1;rounded=0;orthogonalLoop=1;jettySize=auto;html=1;exitX=1;exitY=0.5;exitDx=0;exitDy=0;entryX=0;entryY=0.5;entryDx=0;entryDy=0;fontSize=12;startSize=8;endSize=8;endArrow=none;startFill=0;" edge="1" parent="1" source="1ZU4-F8dUSN6Qa-FBgpp-7" target="1ZU4-F8dUSN6Qa-FBgpp-98">
          <mxGeometry relative="1" as="geometry" />
        </mxCell>
        <mxCell id="1ZU4-F8dUSN6Qa-FBgpp-7" value="Order" style="rounded=0;whiteSpace=wrap;html=1;" vertex="1" parent="1">
          <mxGeometry x="-652" y="431" width="120" height="60" as="geometry" />
        </mxCell>
        <mxCell id="1ZU4-F8dUSN6Qa-FBgpp-26" style="edgeStyle=none;curved=1;rounded=0;orthogonalLoop=1;jettySize=auto;html=1;exitX=0.75;exitY=1;exitDx=0;exitDy=0;entryX=0;entryY=0;entryDx=0;entryDy=0;fontSize=12;startSize=8;endSize=8;endArrow=none;startFill=0;" edge="1" parent="1" source="1ZU4-F8dUSN6Qa-FBgpp-8" target="1ZU4-F8dUSN6Qa-FBgpp-25">
          <mxGeometry relative="1" as="geometry">
            <mxPoint x="122.99999999999977" y="237.50000000000023" as="targetPoint" />
          </mxGeometry>
        </mxCell>
        <mxCell id="1ZU4-F8dUSN6Qa-FBgpp-85" style="edgeStyle=none;curved=1;rounded=0;orthogonalLoop=1;jettySize=auto;html=1;exitX=0.5;exitY=1;exitDx=0;exitDy=0;entryX=0.5;entryY=0;entryDx=0;entryDy=0;fontSize=12;startSize=8;endSize=8;endArrow=none;startFill=0;" edge="1" parent="1" source="1ZU4-F8dUSN6Qa-FBgpp-8" target="1ZU4-F8dUSN6Qa-FBgpp-82">
          <mxGeometry relative="1" as="geometry" />
        </mxCell>
        <mxCell id="1ZU4-F8dUSN6Qa-FBgpp-8" value="Customer" style="rounded=0;whiteSpace=wrap;html=1;" vertex="1" parent="1">
          <mxGeometry x="-135" y="42" width="120" height="60" as="geometry" />
        </mxCell>
        <mxCell id="1ZU4-F8dUSN6Qa-FBgpp-9" value="Menu" style="rounded=0;whiteSpace=wrap;html=1;" vertex="1" parent="1">
          <mxGeometry x="-888" y="406" width="116" height="60" as="geometry" />
        </mxCell>
        <mxCell id="1ZU4-F8dUSN6Qa-FBgpp-10" value="&lt;u&gt;user_id&lt;/u&gt;" style="ellipse;whiteSpace=wrap;html=1;" vertex="1" parent="1">
          <mxGeometry x="-486" y="-223" width="120" height="54" as="geometry" />
        </mxCell>
        <mxCell id="1ZU4-F8dUSN6Qa-FBgpp-11" value="email&lt;span style=&quot;color: rgba(0, 0, 0, 0); font-family: monospace; font-size: 0px; text-align: start; text-wrap-mode: nowrap;&quot;&gt;%3CmxGraphModel%3E%3Croot%3E%3CmxCell%20id%3D%220%22%2F%3E%3CmxCell%20id%3D%221%22%20parent%3D%220%22%2F%3E%3CmxCell%20id%3D%222%22%20value%3D%22%26lt%3Bu%26gt%3Buser_id%26lt%3B%2Fu%26gt%3B%22%20style%3D%22ellipse%3BwhiteSpace%3Dwrap%3Bhtml%3D1%3B%22%20vertex%3D%221%22%20parent%3D%221%22%3E%3CmxGeometry%20x%3D%22-146%22%20y%3D%22-229%22%20width%3D%22120%22%20height%3D%2254%22%20as%3D%22geometry%22%2F%3E%3C%2FmxCell%3E%3C%2Froot%3E%3C%2FmxGraphModel%3E&lt;/span&gt;&lt;span style=&quot;color: rgba(0, 0, 0, 0); font-family: monospace; font-size: 0px; text-align: start; text-wrap-mode: nowrap;&quot;&gt;%3CmxGraphModel%3E%3Croot%3E%3CmxCell%20id%3D%220%22%2F%3E%3CmxCell%20id%3D%221%22%20parent%3D%220%22%2F%3E%3CmxCell%20id%3D%222%22%20value%3D%22%26lt%3Bu%26gt%3Buser_id%26lt%3B%2Fu%26gt%3B%22%20style%3D%22ellipse%3BwhiteSpace%3Dwrap%3Bhtml%3D1%3B%22%20vertex%3D%221%22%20parent%3D%221%22%3E%3CmxGeometry%20x%3D%22-146%22%20y%3D%22-229%22%20width%3D%22120%22%20height%3D%2254%22%20as%3D%22geometry%22%2F%3E%3C%2FmxCell%3E%3C%2Froot%3E%3C%2FmxGraphModel%3E&lt;/span&gt;" style="ellipse;whiteSpace=wrap;html=1;" vertex="1" parent="1">
          <mxGeometry x="-362" y="-277" width="120" height="54" as="geometry" />
        </mxCell>
        <mxCell id="1ZU4-F8dUSN6Qa-FBgpp-12" value="pass&lt;span style=&quot;color: rgba(0, 0, 0, 0); font-family: monospace; font-size: 0px; text-align: start; text-wrap-mode: nowrap;&quot;&gt;%3CmxGraphModel%3E%3Croot%3E%3CmxCell%20id%3D%220%22%2F%3E%3CmxCell%20id%3D%221%22%20parent%3D%220%22%2F%3E%3CmxCell%20id%3D%222%22%20value%3D%22email%26lt%3Bspan%20style%3D%26quot%3Bcolor%3A%20rgba(0%2C%200%2C%200%2C%200)%3B%20font-family%3A%20monospace%3B%20font-size%3A%200px%3B%20text-align%3A%20start%3B%20text-wrap-mode%3A%20nowrap%3B%26quot%3B%26gt%3B%253CmxGraphModel%253E%253Croot%253E%253CmxCell%2520id%253D%25220%2522%252F%253E%253CmxCell%2520id%253D%25221%2522%2520parent%253D%25220%2522%252F%253E%253CmxCell%2520id%253D%25222%2522%2520value%253D%2522%2526lt%253Bu%2526gt%253Buser_id%2526lt%253B%252Fu%2526gt%253B%2522%2520style%253D%2522ellipse%253BwhiteSpace%253Dwrap%253Bhtml%253D1%253B%2522%2520vertex%253D%25221%2522%2520parent%253D%25221%2522%253E%253CmxGeometry%2520x%253D%2522-146%2522%2520y%253D%2522-229%2522%2520width%253D%2522120%2522%2520height%253D%252254%2522%2520as%253D%2522geometry%2522%252F%253E%253C%252FmxCell%253E%253C%252Froot%253E%253C%252FmxGraphModel%253E%26lt%3B%2Fspan%26gt%3B%26lt%3Bspan%20style%3D%26quot%3Bcolor%3A%20rgba(0%2C%200%2C%200%2C%200)%3B%20font-family%3A%20monospace%3B%20font-size%3A%200px%3B%20text-align%3A%20start%3B%20text-wrap-mode%3A%20nowrap%3B%26quot%3B%26gt%3B%253CmxGraphModel%253E%253Croot%253E%253CmxCell%2520id%253D%25220%2522%252F%253E%253CmxCell%2520id%253D%25221%2522%2520parent%253D%25220%2522%252F%253E%253CmxCell%2520id%253D%25222%2522%2520value%253D%2522%2526lt%253Bu%2526gt%253Buser_id%2526lt%253B%252Fu%2526gt%253B%2522%2520style%253D%2522ellipse%253BwhiteSpace%253Dwrap%253Bhtml%253D1%253B%2522%2520vertex%253D%25221%2522%2520parent%253D%25221%2522%253E%253CmxGeometry%2520x%253D%2522-146%2522%2520y%253D%2522-229%2522%2520width%253D%2522120%2522%2520height%253D%252254%2522%2520as%253D%2522geometry%2522%252F%253E%253C%252FmxCell%253E%253C%252Froot%253E%253C%252FmxGraphModel%253E%26lt%3B%2Fspan%26gt%3B%22%20style%3D%22ellipse%3BwhiteSpace%3Dwrap%3Bhtml%3D1%3B%22%20vertex%3D%221%22%20parent%3D%221%22%3E%3CmxGeometry%20x%3D%223%22%20y%3D%22-229%22%20width%3D%22120%22%20height%3D%2254%22%20as%3D%22geometry%22%2F%3E%3C%2FmxCell%3E%3C%2Froot%3E%3C%2FmxGraphModel%3E&lt;/span&gt;word" style="ellipse;whiteSpace=wrap;html=1;" vertex="1" parent="1">
          <mxGeometry x="-89" y="-241" width="120" height="54" as="geometry" />
        </mxCell>
        <mxCell id="1ZU4-F8dUSN6Qa-FBgpp-13" value="phone_number" style="ellipse;whiteSpace=wrap;html=1;" vertex="1" parent="1">
          <mxGeometry x="-220" y="-274" width="120" height="54" as="geometry" />
        </mxCell>
        <mxCell id="1ZU4-F8dUSN6Qa-FBgpp-19" value="nama_mitra" style="ellipse;whiteSpace=wrap;html=1;" vertex="1" parent="1">
          <mxGeometry x="-531" y="134" width="120" height="80" as="geometry" />
        </mxCell>
        <mxCell id="1ZU4-F8dUSN6Qa-FBgpp-20" value="&lt;u&gt;npwp&lt;/u&gt;" style="ellipse;whiteSpace=wrap;html=1;" vertex="1" parent="1">
          <mxGeometry x="-369" y="141" width="120" height="80" as="geometry" />
        </mxCell>
        <mxCell id="1ZU4-F8dUSN6Qa-FBgpp-23" style="edgeStyle=none;curved=1;rounded=0;orthogonalLoop=1;jettySize=auto;html=1;exitX=0.25;exitY=1;exitDx=0;exitDy=0;entryX=0.5;entryY=1;entryDx=0;entryDy=0;fontSize=12;startSize=8;endSize=8;endArrow=none;startFill=0;" edge="1" parent="1" target="1ZU4-F8dUSN6Qa-FBgpp-24" source="1ZU4-F8dUSN6Qa-FBgpp-8">
          <mxGeometry relative="1" as="geometry">
            <mxPoint x="-101" y="29" as="sourcePoint" />
          </mxGeometry>
        </mxCell>
        <mxCell id="1ZU4-F8dUSN6Qa-FBgpp-24" value="first_name" style="ellipse;whiteSpace=wrap;html=1;" vertex="1" parent="1">
          <mxGeometry x="-232" y="150" width="120" height="80" as="geometry" />
        </mxCell>
        <mxCell id="1ZU4-F8dUSN6Qa-FBgpp-25" value="last_name" style="ellipse;whiteSpace=wrap;html=1;" vertex="1" parent="1">
          <mxGeometry x="-15" y="159" width="121" height="74" as="geometry" />
        </mxCell>
        <mxCell id="1ZU4-F8dUSN6Qa-FBgpp-32" style="edgeStyle=none;curved=1;rounded=0;orthogonalLoop=1;jettySize=auto;html=1;exitX=0;exitY=1;exitDx=0;exitDy=0;entryX=0.5;entryY=0;entryDx=0;entryDy=0;fontSize=12;startSize=8;endSize=8;endArrow=none;startFill=0;" edge="1" parent="1" source="1ZU4-F8dUSN6Qa-FBgpp-27" target="1ZU4-F8dUSN6Qa-FBgpp-5">
          <mxGeometry relative="1" as="geometry" />
        </mxCell>
        <mxCell id="1ZU4-F8dUSN6Qa-FBgpp-33" style="edgeStyle=none;curved=1;rounded=0;orthogonalLoop=1;jettySize=auto;html=1;exitX=1;exitY=1;exitDx=0;exitDy=0;entryX=0.5;entryY=0;entryDx=0;entryDy=0;fontSize=12;startSize=8;endSize=8;endArrow=none;startFill=0;" edge="1" parent="1" source="1ZU4-F8dUSN6Qa-FBgpp-27" target="1ZU4-F8dUSN6Qa-FBgpp-8">
          <mxGeometry relative="1" as="geometry" />
        </mxCell>
        <mxCell id="1ZU4-F8dUSN6Qa-FBgpp-27" value="d" style="ellipse;whiteSpace=wrap;html=1;aspect=fixed;" vertex="1" parent="1">
          <mxGeometry x="-200" y="-44.5" width="42" height="42" as="geometry" />
        </mxCell>
        <mxCell id="1ZU4-F8dUSN6Qa-FBgpp-36" style="edgeStyle=none;curved=1;rounded=0;orthogonalLoop=1;jettySize=auto;html=1;exitX=1;exitY=0.5;exitDx=0;exitDy=0;fontSize=12;shape=link;" edge="1" parent="1" source="1ZU4-F8dUSN6Qa-FBgpp-34" target="1ZU4-F8dUSN6Qa-FBgpp-5">
          <mxGeometry relative="1" as="geometry" />
        </mxCell>
        <mxCell id="1ZU4-F8dUSN6Qa-FBgpp-34" value="Memiliki" style="rhombus;whiteSpace=wrap;html=1;" vertex="1" parent="1">
          <mxGeometry x="-649" y="17" width="106" height="80" as="geometry" />
        </mxCell>
        <mxCell id="1ZU4-F8dUSN6Qa-FBgpp-37" value="1" style="text;html=1;align=center;verticalAlign=middle;whiteSpace=wrap;rounded=0;" vertex="1" parent="1">
          <mxGeometry x="-546" y="19" width="60" height="30" as="geometry" />
        </mxCell>
        <mxCell id="1ZU4-F8dUSN6Qa-FBgpp-38" value="n" style="text;html=1;align=center;verticalAlign=middle;whiteSpace=wrap;rounded=0;" vertex="1" parent="1">
          <mxGeometry x="-703" y="17" width="60" height="30" as="geometry" />
        </mxCell>
        <mxCell id="1ZU4-F8dUSN6Qa-FBgpp-41" value="&lt;u&gt;outlet_id&lt;/u&gt;" style="ellipse;whiteSpace=wrap;html=1;" vertex="1" parent="1">
          <mxGeometry x="-1040" y="170" width="120" height="80" as="geometry" />
        </mxCell>
        <mxCell id="1ZU4-F8dUSN6Qa-FBgpp-42" value="outlet_name" style="ellipse;whiteSpace=wrap;html=1;" vertex="1" parent="1">
          <mxGeometry x="-928" y="-187" width="120" height="80" as="geometry" />
        </mxCell>
        <mxCell id="1ZU4-F8dUSN6Qa-FBgpp-43" value="branch_name" style="ellipse;whiteSpace=wrap;html=1;" vertex="1" parent="1">
          <mxGeometry x="-792" y="-116" width="120" height="80" as="geometry" />
        </mxCell>
        <mxCell id="1ZU4-F8dUSN6Qa-FBgpp-48" value="alamat&lt;span style=&quot;color: rgba(0, 0, 0, 0); font-family: monospace; font-size: 0px; text-align: start; text-wrap-mode: nowrap;&quot;&gt;%3CmxGraphModel%3E%3Croot%3E%3CmxCell%20id%3D%220%22%2F%3E%3CmxCell%20id%3D%221%22%20parent%3D%220%22%2F%3E%3CmxCell%20id%3D%222%22%20value%3D%22outlet_name%22%20style%3D%22ellipse%3BwhiteSpace%3Dwrap%3Bhtml%3D1%3B%22%20vertex%3D%221%22%20parent%3D%221%22%3E%3CmxGeometry%20x%3D%22-920%22%20y%3D%22159%22%20width%3D%22120%22%20height%3D%2280%22%20as%3D%22geometry%22%2F%3E%3C%2FmxCell%3E%3C%2Froot%3E%3C%2FmxGraphModel%3E&lt;/span&gt;" style="ellipse;whiteSpace=wrap;html=1;" vertex="1" parent="1">
          <mxGeometry x="-1135" y="64" width="120" height="80" as="geometry" />
        </mxCell>
        <mxCell id="1ZU4-F8dUSN6Qa-FBgpp-49" value="operating_hours" style="ellipse;whiteSpace=wrap;html=1;" vertex="1" parent="1">
          <mxGeometry x="-1146" y="-42" width="120" height="80" as="geometry" />
        </mxCell>
        <mxCell id="1ZU4-F8dUSN6Qa-FBgpp-95" style="edgeStyle=none;curved=1;rounded=0;orthogonalLoop=1;jettySize=auto;html=1;exitX=0.5;exitY=1;exitDx=0;exitDy=0;entryX=0.5;entryY=0;entryDx=0;entryDy=0;fontSize=12;startSize=8;endSize=8;endArrow=none;startFill=0;" edge="1" parent="1" source="1ZU4-F8dUSN6Qa-FBgpp-52" target="1ZU4-F8dUSN6Qa-FBgpp-9">
          <mxGeometry relative="1" as="geometry" />
        </mxCell>
        <mxCell id="1ZU4-F8dUSN6Qa-FBgpp-52" value="Memiliki" style="rhombus;whiteSpace=wrap;html=1;" vertex="1" parent="1">
          <mxGeometry x="-883" y="260" width="106" height="80" as="geometry" />
        </mxCell>
        <mxCell id="1ZU4-F8dUSN6Qa-FBgpp-55" value="m" style="text;html=1;align=center;verticalAlign=middle;whiteSpace=wrap;rounded=0;" vertex="1" parent="1">
          <mxGeometry x="-815" y="250" width="60" height="30" as="geometry" />
        </mxCell>
        <mxCell id="1ZU4-F8dUSN6Qa-FBgpp-56" value="n" style="text;html=1;align=center;verticalAlign=middle;whiteSpace=wrap;rounded=0;" vertex="1" parent="1">
          <mxGeometry x="-819" y="327" width="60" height="30" as="geometry" />
        </mxCell>
        <mxCell id="1ZU4-F8dUSN6Qa-FBgpp-61" style="edgeStyle=none;curved=1;rounded=0;orthogonalLoop=1;jettySize=auto;html=1;exitX=1;exitY=0.5;exitDx=0;exitDy=0;entryX=0;entryY=0.5;entryDx=0;entryDy=0;fontSize=12;startSize=8;endSize=8;endArrow=none;startFill=0;" edge="1" parent="1" source="1ZU4-F8dUSN6Qa-FBgpp-57" target="1ZU4-F8dUSN6Qa-FBgpp-9">
          <mxGeometry relative="1" as="geometry" />
        </mxCell>
        <mxCell id="1ZU4-F8dUSN6Qa-FBgpp-57" value="&lt;u&gt;nama_menu&lt;/u&gt;" style="ellipse;whiteSpace=wrap;html=1;" vertex="1" parent="1">
          <mxGeometry x="-1204" y="422" width="120" height="80" as="geometry" />
        </mxCell>
        <mxCell id="1ZU4-F8dUSN6Qa-FBgpp-62" style="edgeStyle=none;curved=1;rounded=0;orthogonalLoop=1;jettySize=auto;html=1;exitX=1;exitY=1;exitDx=0;exitDy=0;entryX=0.25;entryY=1;entryDx=0;entryDy=0;fontSize=12;startSize=8;endSize=8;endArrow=none;startFill=0;" edge="1" parent="1" source="1ZU4-F8dUSN6Qa-FBgpp-58" target="1ZU4-F8dUSN6Qa-FBgpp-9">
          <mxGeometry relative="1" as="geometry" />
        </mxCell>
        <mxCell id="1ZU4-F8dUSN6Qa-FBgpp-58" value="&lt;u&gt;menu_id&lt;/u&gt;" style="ellipse;whiteSpace=wrap;html=1;" vertex="1" parent="1">
          <mxGeometry x="-1191" y="532" width="120" height="80" as="geometry" />
        </mxCell>
        <mxCell id="1ZU4-F8dUSN6Qa-FBgpp-90" style="edgeStyle=none;curved=1;rounded=0;orthogonalLoop=1;jettySize=auto;html=1;exitX=0.5;exitY=1;exitDx=0;exitDy=0;entryX=0.5;entryY=1;entryDx=0;entryDy=0;fontSize=12;startSize=8;endSize=8;endArrow=none;startFill=0;" edge="1" parent="1" source="1ZU4-F8dUSN6Qa-FBgpp-59" target="1ZU4-F8dUSN6Qa-FBgpp-9">
          <mxGeometry relative="1" as="geometry" />
        </mxCell>
        <mxCell id="1ZU4-F8dUSN6Qa-FBgpp-59" value="kategori" style="ellipse;whiteSpace=wrap;html=1;" vertex="1" parent="1">
          <mxGeometry x="-1080" y="628" width="120" height="80" as="geometry" />
        </mxCell>
        <mxCell id="1ZU4-F8dUSN6Qa-FBgpp-64" style="edgeStyle=none;curved=1;rounded=0;orthogonalLoop=1;jettySize=auto;html=1;exitX=0.5;exitY=0;exitDx=0;exitDy=0;entryX=0.75;entryY=1;entryDx=0;entryDy=0;fontSize=12;startSize=8;endSize=8;endArrow=none;startFill=0;" edge="1" parent="1" source="1ZU4-F8dUSN6Qa-FBgpp-60" target="1ZU4-F8dUSN6Qa-FBgpp-9">
          <mxGeometry relative="1" as="geometry" />
        </mxCell>
        <mxCell id="1ZU4-F8dUSN6Qa-FBgpp-60" value="harga" style="ellipse;whiteSpace=wrap;html=1;" vertex="1" parent="1">
          <mxGeometry x="-903" y="653" width="120" height="80" as="geometry" />
        </mxCell>
        <mxCell id="1ZU4-F8dUSN6Qa-FBgpp-66" style="edgeStyle=none;curved=1;rounded=0;orthogonalLoop=1;jettySize=auto;html=1;exitX=0;exitY=0.5;exitDx=0;exitDy=0;entryX=1;entryY=0.5;entryDx=0;entryDy=0;fontSize=12;endArrow=none;startFill=0;shape=link;" edge="1" parent="1" source="1ZU4-F8dUSN6Qa-FBgpp-65" target="1ZU4-F8dUSN6Qa-FBgpp-8">
          <mxGeometry relative="1" as="geometry" />
        </mxCell>
        <mxCell id="1ZU4-F8dUSN6Qa-FBgpp-65" value="Memiliki" style="rhombus;whiteSpace=wrap;html=1;" vertex="1" parent="1">
          <mxGeometry x="68" y="35" width="106" height="80" as="geometry" />
        </mxCell>
        <mxCell id="1ZU4-F8dUSN6Qa-FBgpp-68" value="1" style="text;html=1;align=center;verticalAlign=middle;resizable=0;points=[];autosize=1;strokeColor=none;fillColor=none;fontSize=16;" vertex="1" parent="1">
          <mxGeometry x="26.5" y="36.5" width="27" height="31" as="geometry" />
        </mxCell>
        <mxCell id="1ZU4-F8dUSN6Qa-FBgpp-69" value="n" style="text;html=1;align=center;verticalAlign=middle;resizable=0;points=[];autosize=1;strokeColor=none;fillColor=none;fontSize=16;" vertex="1" parent="1">
          <mxGeometry x="164.5" y="32.5" width="27" height="31" as="geometry" />
        </mxCell>
        <mxCell id="1ZU4-F8dUSN6Qa-FBgpp-70" value="&lt;u&gt;account_number&lt;/u&gt;" style="ellipse;whiteSpace=wrap;html=1;" vertex="1" parent="1">
          <mxGeometry x="152" y="153" width="121" height="74" as="geometry" />
        </mxCell>
        <mxCell id="1ZU4-F8dUSN6Qa-FBgpp-71" value="bank_name" style="ellipse;whiteSpace=wrap;html=1;" vertex="1" parent="1">
          <mxGeometry x="311" y="159" width="121" height="74" as="geometry" />
        </mxCell>
        <mxCell id="1ZU4-F8dUSN6Qa-FBgpp-78" style="edgeStyle=none;curved=1;rounded=0;orthogonalLoop=1;jettySize=auto;html=1;exitX=0.5;exitY=0;exitDx=0;exitDy=0;entryX=0.25;entryY=1;entryDx=0;entryDy=0;fontSize=12;startSize=8;endSize=8;strokeColor=default;endArrow=none;startFill=0;" edge="1" parent="1" source="1ZU4-F8dUSN6Qa-FBgpp-74" target="1ZU4-F8dUSN6Qa-FBgpp-4">
          <mxGeometry relative="1" as="geometry" />
        </mxCell>
        <mxCell id="1ZU4-F8dUSN6Qa-FBgpp-74" value="&lt;u&gt;transaksi_id&lt;/u&gt;" style="ellipse;whiteSpace=wrap;html=1;" vertex="1" parent="1">
          <mxGeometry x="-295" y="483.5" width="120" height="54" as="geometry" />
        </mxCell>
        <mxCell id="1ZU4-F8dUSN6Qa-FBgpp-80" style="edgeStyle=none;curved=1;rounded=0;orthogonalLoop=1;jettySize=auto;html=1;exitX=0.5;exitY=0;exitDx=0;exitDy=0;entryX=0.75;entryY=1;entryDx=0;entryDy=0;fontSize=12;startSize=8;endSize=8;strokeColor=default;endArrow=none;startFill=0;" edge="1" parent="1" source="1ZU4-F8dUSN6Qa-FBgpp-75" target="1ZU4-F8dUSN6Qa-FBgpp-4">
          <mxGeometry relative="1" as="geometry" />
        </mxCell>
        <mxCell id="1ZU4-F8dUSN6Qa-FBgpp-75" value="total_pembayaran" style="ellipse;whiteSpace=wrap;html=1;" vertex="1" parent="1">
          <mxGeometry x="-19.5" y="494" width="120" height="54" as="geometry" />
        </mxCell>
        <mxCell id="1ZU4-F8dUSN6Qa-FBgpp-79" style="edgeStyle=none;curved=1;rounded=0;orthogonalLoop=1;jettySize=auto;html=1;exitX=0.5;exitY=0;exitDx=0;exitDy=0;entryX=0.5;entryY=1;entryDx=0;entryDy=0;fontSize=12;startSize=8;endSize=8;strokeColor=default;endArrow=none;startFill=0;" edge="1" parent="1" source="1ZU4-F8dUSN6Qa-FBgpp-76" target="1ZU4-F8dUSN6Qa-FBgpp-4">
          <mxGeometry relative="1" as="geometry">
            <mxPoint x="-101" y="536" as="sourcePoint" />
          </mxGeometry>
        </mxCell>
        <mxCell id="1ZU4-F8dUSN6Qa-FBgpp-81" style="edgeStyle=none;curved=1;rounded=0;orthogonalLoop=1;jettySize=auto;html=1;exitX=0.5;exitY=0;exitDx=0;exitDy=0;entryX=1;entryY=1;entryDx=0;entryDy=0;fontSize=12;startSize=8;endSize=8;strokeColor=default;endArrow=none;startFill=0;" edge="1" parent="1" source="1ZU4-F8dUSN6Qa-FBgpp-77" target="1ZU4-F8dUSN6Qa-FBgpp-4">
          <mxGeometry relative="1" as="geometry" />
        </mxCell>
        <mxCell id="1ZU4-F8dUSN6Qa-FBgpp-77" value="jenis_pembayaran" style="ellipse;whiteSpace=wrap;html=1;" vertex="1" parent="1">
          <mxGeometry x="142" y="489" width="120" height="54" as="geometry" />
        </mxCell>
        <mxCell id="1ZU4-F8dUSN6Qa-FBgpp-86" style="edgeStyle=none;curved=1;rounded=0;orthogonalLoop=1;jettySize=auto;html=1;exitX=0.5;exitY=1;exitDx=0;exitDy=0;entryX=0.5;entryY=0;entryDx=0;entryDy=0;fontSize=12;endArrow=none;startFill=0;shape=link;" edge="1" parent="1" source="1ZU4-F8dUSN6Qa-FBgpp-82" target="1ZU4-F8dUSN6Qa-FBgpp-4">
          <mxGeometry relative="1" as="geometry" />
        </mxCell>
        <mxCell id="1ZU4-F8dUSN6Qa-FBgpp-82" value="Melakukan" style="rhombus;whiteSpace=wrap;html=1;" vertex="1" parent="1">
          <mxGeometry x="-117" y="230" width="106" height="80" as="geometry" />
        </mxCell>
        <mxCell id="1ZU4-F8dUSN6Qa-FBgpp-83" value="" style="edgeStyle=none;curved=1;rounded=0;orthogonalLoop=1;jettySize=auto;html=1;exitX=0.5;exitY=0;exitDx=0;exitDy=0;entryX=0.5;entryY=1;entryDx=0;entryDy=0;fontSize=12;startSize=8;endSize=8;strokeColor=default;endArrow=none;startFill=0;" edge="1" parent="1" target="1ZU4-F8dUSN6Qa-FBgpp-76">
          <mxGeometry relative="1" as="geometry">
            <mxPoint x="-101" y="536" as="sourcePoint" />
            <mxPoint x="-59" y="396" as="targetPoint" />
          </mxGeometry>
        </mxCell>
        <mxCell id="1ZU4-F8dUSN6Qa-FBgpp-76" value="tanggal_transaksi" style="ellipse;whiteSpace=wrap;html=1;" vertex="1" parent="1">
          <mxGeometry x="-158" y="494" width="120" height="54" as="geometry" />
        </mxCell>
        <mxCell id="1ZU4-F8dUSN6Qa-FBgpp-87" value="1" style="text;html=1;align=center;verticalAlign=middle;resizable=0;points=[];autosize=1;strokeColor=none;fillColor=none;fontSize=16;" vertex="1" parent="1">
          <mxGeometry x="-61.5" y="204.5" width="27" height="31" as="geometry" />
        </mxCell>
        <mxCell id="1ZU4-F8dUSN6Qa-FBgpp-88" value="n" style="text;html=1;align=center;verticalAlign=middle;resizable=0;points=[];autosize=1;strokeColor=none;fillColor=none;fontSize=16;" vertex="1" parent="1">
          <mxGeometry x="-46.5" y="290.5" width="27" height="31" as="geometry" />
        </mxCell>
        <mxCell id="1ZU4-F8dUSN6Qa-FBgpp-97" value="kuantitas&lt;span style=&quot;color: rgba(0, 0, 0, 0); font-family: monospace; font-size: 0px; text-align: start; text-wrap-mode: nowrap;&quot;&gt;%3CmxGraphModel%3E%3Croot%3E%3CmxCell%20id%3D%220%22%2F%3E%3CmxCell%20id%3D%221%22%20parent%3D%220%22%2F%3E%3CmxCell%20id%3D%222%22%20value%3D%22harga%22%20style%3D%22ellipse%3BwhiteSpace%3Dwrap%3Bhtml%3D1%3B%22%20vertex%3D%221%22%20parent%3D%221%22%3E%3CmxGeometry%20x%3D%22-680%22%20y%3D%22548%22%20width%3D%22120%22%20height%3D%2280%22%20as%3D%22geometry%22%2F%3E%3C%2FmxCell%3E%3C%2Froot%3E%3C%2FmxGraphModel%3E&lt;/span&gt;" style="ellipse;whiteSpace=wrap;html=1;" vertex="1" parent="1">
          <mxGeometry x="-472" y="626" width="120" height="80" as="geometry" />
        </mxCell>
        <mxCell id="1ZU4-F8dUSN6Qa-FBgpp-98" value="total_price" style="ellipse;whiteSpace=wrap;html=1;" vertex="1" parent="1">
          <mxGeometry x="-426" y="404" width="120" height="80" as="geometry" />
        </mxCell>
        <mxCell id="1ZU4-F8dUSN6Qa-FBgpp-99" value="special_note" style="ellipse;whiteSpace=wrap;html=1;" vertex="1" parent="1">
          <mxGeometry x="-442" y="500" width="122" height="80" as="geometry" />
        </mxCell>
      </root>
    </mxGraphModel>
  </diagram>
</mxfile>
